<svg xmlns="http://www.w3.org/2000/svg" fill="none" viewBox="0 0 48 48" id="Playwright--Streamline-Svg-Logos" height="48" width="48"><desc>Playwright Streamline Icon: https://streamlinehq.com</desc><path fill="#2d4552" d="M15.9917 26.28345c-1.7545 0.49795 -2.90555 1.37095 -3.6638 2.2433 0.72625 -0.63555 1.69905 -1.21885 3.01135 -1.59085 1.3422 -0.3804 2.48725 -0.37765 3.4334 -0.1951v-0.73985c-0.8071 -0.0738 -1.73245 -0.015 -2.78095 0.2825Zm-3.744 -6.21955 -6.5159 1.71665s0.11875 0.16775 0.3386 0.39155l5.5247 -1.45575s-0.0783 1.0088 -0.75815 1.9112c1.286 -0.97295 1.41075 -2.56365 1.41075 -2.56365Zm5.45425 15.3135C8.5323 37.84715 3.680965 27.2205 2.212175 21.70485c-0.6786 -2.546 -0.97483 -4.4742 -1.053785 -5.71855 -0.008485 -0.1292 -0.004565 -0.2381 0.00457 -0.3379 -0.47567 0.0287 -0.703403 0.27595 -0.65707 0.9905 0.078955 1.24365 0.37519 3.17175 1.05379 5.71855C3.027815 27.87225 7.8798 38.4989 17.0495 36.0292c1.9959 -0.5377 3.49535 -1.51705 4.62095 -2.76725 -1.0375 0.93705 -2.336 1.675 -3.9685 2.11545Zm1.72315 -21.8171v0.6526h3.5967c-0.0738 -0.23105 -0.14815 -0.43925 -0.22195 -0.6526h-3.37475Z" stroke-width="0.5"></path><path fill="#2d4552" d="M23.8258 18.9347c1.6175 0.45935 2.473 1.5934 2.92515 2.597l1.8035 0.5122s-0.246 -3.51235 -3.42305 -4.4148c-2.97215 -0.84445 -4.80115 1.6514 -5.0236 1.9744 0.8646 -0.616 2.12715 -1.1203 3.718 -0.6688Zm14.35635 2.6132c-2.97485 -0.84825 -4.80315 1.6528 -5.02235 1.97125 0.86525 -0.61525 2.12715 -1.11975 3.7173 -0.6662 1.6149 0.4601 2.4697 1.59275 2.92325 2.59705l1.8061 0.5141s-0.25 -3.51305 -3.4243 -4.4162Zm-1.7918 9.261 -15.00295 -4.19425s0.1624 0.82345 0.7856 1.8897l12.6318 3.53135c1.03995 -0.6017 1.58555 -1.2268 1.58555 -1.2268ZM25.98875 39.83695C14.10935 36.652 15.5455 21.51605 17.46775 14.34365c0.79145 -2.9558 1.60515 -5.15275 2.2799 -6.62545 -0.4026 -0.08285 -0.73605 0.1292 -1.06555 0.7993 -0.71645 1.45315 -1.6326 3.8191 -2.51925 7.1312 -1.9217 7.17225 -3.3579 22.3077 8.521 25.49265 5.5991 1.5 9.96095 -0.7798 13.2125 -4.3601 -3.08635 2.7954 -7.02685 4.36265 -11.9076 3.0557Z" stroke-width="0.5"></path><path fill="#e2574c" d="M19.4252 31.83035V28.776l-8.48635 2.4064s0.62705 -3.6435 5.05295 -4.899c1.3422 -0.3804 2.4874 -0.3778 3.4334 -0.1951V13.56025h4.24915c-0.46265 -1.42965 -0.9102 -2.5303 -1.2861 -3.2951 -0.62185 -1.26585 -1.2593 -0.4267 -2.7065 0.7837 -1.0193 0.85155 -3.59535 2.6681 -7.4718 3.7127 -3.87655 1.04525 -7.0105 0.76805 -8.31812 0.5416 -1.853765 -0.3198 -2.823385 -0.7269 -2.732675 0.6831 0.07894 1.24365 0.37519 3.1719 1.053785 5.71855C3.681065 27.21975 8.53305 37.8464 17.7027 35.3767c2.39525 -0.6454 4.0859 -1.92105 5.2578 -3.547h-3.5353v0.00065ZM5.73125 21.7805l6.51655 -1.71665s-0.18995 2.5069 -2.6329 3.1509c-2.4436 0.64335 -3.88365 -1.43425 -3.88365 -1.43425Z" stroke-width="0.5"></path><path fill="#2ead33" d="M43.95015 13.705c-1.6939 0.29695 -5.75775 0.6669 -10.77995 -0.67925 -5.0236 -1.34535 -8.3567 -3.69835 -9.67725 -4.80435 -1.872 -1.56795 -2.69545 -2.65765 -3.50585 -1.0094 -0.71645 1.45375 -1.63265 3.81975 -2.51945 7.13185 -1.92155 7.17225 -3.3577 22.3077 8.52105 25.4926 11.87625 3.18225 18.1989 -10.64435 20.1206 -17.81725 0.8868 -3.31145 1.27565 -5.819 1.38265 -7.43585 0.122 -1.83155 -1.13605 -1.2999 -3.5418 -0.87835ZM20.0836 19.6389s1.872 -2.9115 5.04705 -2.0091c3.17705 0.90245 3.42305 4.41485 3.42305 4.41485l-8.4701 -2.40575ZM27.834 32.704c-5.5847 -1.63595 -6.446 -6.0893 -6.446 -6.0893l15.00225 4.1944c0 -0.0007 -3.0282 3.51035 -8.55625 1.8949Zm5.3042 -9.1521s1.8694 -2.9095 5.04385 -2.0045c3.17435 0.9038 3.4243 4.4162 3.4243 4.4162l-8.46815 -2.4117Z" stroke-width="0.5"></path><path fill="#d65348" d="M16.4598 29.61705 10.939 31.18175s0.5997 -3.41645 4.6667 -4.77035l-3.12615 -11.73195 -0.27015 0.0821c-3.8765 1.0454 -7.01045 0.76805 -8.31806 0.5416 -1.853755 -0.31965 -2.82337 -0.7269 -2.732675 0.68325 0.078955 1.24365 0.37519 3.17175 1.053785 5.7185 1.468135 5.51485 6.32015 16.1415 15.48975 13.6718l0.27015 -0.08485 -1.51255 -5.6748ZM5.7314 21.7806l6.51655 -1.71675s-0.18995 2.5069 -2.63285 3.1509c-2.44365 0.64335 -3.8837 -1.43415 -3.8837 -1.43415Z" stroke-width="0.5"></path><path fill="#1d8d22" d="m28.0859 32.76525 -0.2526 -0.0614c-5.58465 -1.6358 -6.446 -6.08915 -6.446 -6.08915l7.7361 2.1624 4.09565 -15.7383 -0.04955 -0.01305c-5.0236 -1.34535 -8.3565 -3.69835 -9.67725 -4.80435 -1.872 -1.56795 -2.69545 -2.65765 -3.50585 -1.0094 -0.71575 1.45375 -1.63195 3.81975 -2.51875 7.13185 -1.92155 7.17225 -3.3577 22.3077 8.52105 25.4925l0.24345 0.05485 1.85375 -7.12595ZM20.0836 19.63895s1.872 -2.91155 5.04705 -2.00915c3.17705 0.90245 3.42305 4.41485 3.42305 4.41485l-8.4701 -2.4057Z" stroke-width="0.5"></path><path fill="#c04b41" d="m16.7411 29.5366 -1.48055 0.4202c0.34975 1.9718 0.96625 3.8641 1.93395 5.5358 0.1684 -0.0372 0.33545 -0.06915 0.507 -0.11615 0.4496 -0.1213 0.8665 -0.2715 1.2679 -0.4353 -1.0812 -1.60445 -1.79645 -3.45235 -2.2283 -5.40455Zm-0.57815 -13.8878c-0.7608 2.83965 -1.44145 6.9269 -1.2541 11.0265 0.33535 -0.14555 0.6896 -0.28115 1.0831 -0.3928l0.2741 -0.06125c-0.33415 -4.37905 0.38815 -8.8414 1.20185 -11.8775 0.20625 -0.76805 0.41305 -1.48245 0.6192 -2.1487 -0.33205 0.21135 -0.6896 0.42795 -1.09685 0.6511 -0.27465 0.8477 -0.552 1.77425 -0.8273 2.80265Z" stroke-width="0.5"></path></svg>